<svg width="50" height="50" viewBox="0 0 50 50" fill="none" xmlns="http://www.w3.org/2000/svg">
    <circle cx="25" cy="25" r="25" fill="#F5F5F5"/>
    <path fill-rule="evenodd" clip-rule="evenodd"
          d="M7.91052 20.3756C9.36532 23.8762 11.83 28.4335 14.0622 31.5111C16.2704 34.5608 18.8459 37.3554 21.5231 39.5616C25.7469 43.0392 29.3521 44.7006 33.1077 39.5591C34.804 37.2377 36.5053 34.0992 37.8402 31.4922C39.6084 28.0409 41.0029 24.1996 42.0938 20.3904C42.5321 18.8614 43.1069 16.7819 42.9828 14.8761C42.8547 12.9028 41.9895 11.1105 39.9798 10.1411C42.0541 11.517 42.2856 13.3866 41.648 15.4982C41.0525 17.3078 40.3892 18.9207 39.6696 20.3986C38.0312 23.761 36.1182 26.4618 34.0506 29.1724C31.6257 32.4657 30.2081 31.9835 27.937 29.7526C25.1374 26.907 22.619 23.817 20.4909 20.3904C19.2727 18.431 16.7228 14.0334 16.5971 11.7277C16.507 10.0868 17.4333 8.94624 19.9616 8.43604C16.684 8.88616 12.633 9.85637 9.92937 11.5672C7.46722 13.1241 5.91896 15.5805 7.91052 20.3756Z"
          fill="url(#paint0_linear)"/>
    <path fill-rule="evenodd" clip-rule="evenodd"
          d="M27.1974 8C26.9881 8.00082 26.7789 8.00165 26.5688 8.00247C24.4987 8.00823 22.2242 8.13413 19.9614 8.43696C17.4339 8.94716 16.5076 10.0877 16.5977 11.7286C16.7053 13.6929 18.5728 17.1754 19.8754 19.375C23.7866 18.7941 33.952 18.1645 37.5182 20.0037C38.7109 20.6184 38.7448 21.4496 38.6265 22.3943C38.9838 21.7532 39.3328 21.09 39.6702 20.3995C40.3898 18.9216 41.0531 17.3087 41.6486 15.4991C42.2862 13.3876 42.0547 11.5179 39.9804 10.142L39.9705 10.1371C39.1972 9.73386 38.3073 9.44255 37.51 9.21214C35.1578 8.53407 32.5509 8.25757 29.9308 8.06912C29.2162 8.01646 28.4801 8.00247 27.7325 8H27.1974Z"
          fill="url(#paint1_linear)"/>
    <defs>
        <linearGradient id="paint0_linear" x1="-5.94419" y1="21.2706" x2="12.1766" y2="52.8212"
                        gradientUnits="userSpaceOnUse">
            <stop stop-color="#79BE42"/>
            <stop offset="1" stop-color="#006C42"/>
        </linearGradient>
        <linearGradient id="paint1_linear" x1="10.9655" y1="18.9173" x2="27.4944" y2="33.064"
                        gradientUnits="userSpaceOnUse">
            <stop stop-color="#0A8047"/>
            <stop offset="1" stop-color="#75BB42"/>
        </linearGradient>
    </defs>
</svg>
